# xmcd
#
# Track frame offsets:
#	150
#	13337
#	26418
#	42414
#	56682
#	67828
#	78546
#	90939
#	102001
#	113458
#	124341
#	134247
#	146796
#	163577
#	173988
#	183945
#	194207
#	204264
#	216936
#	226704
#
# Disc length: 3170
#
# Revision: 2
# Processed by: cddbd v1.5.1PL0 Copyright (c) Steve Scherf et al.
# Submitted via: audiograbber 1.81.03
# Normalized: r1:DSETVAR1
#
DISCID=1b0c6014
DTITLE=Various Artist - Country Love Songs
DYEAR=1997
DGENRE=Country
TTITLE0=Kenny Rogers - Ruby, Don't Take Your Love To Town
TTITLE1=Crystal Gayle - Talking In Your Sleep
TTITLE2=Randy Van Warmer - Just When I Needed You Most
TTITLE3=Bellamy Brothers - If I Said You Had A Beautiful Body
TTITLE4=Johnny Cash - I Love You Because
TTITLE5=Billy Jo Spears - Misty Blue
TTITLE6=Willie Nelson - Shelter Of Your Arms
TTITLE7=Conway Twitty - It's Only Make Believe
TTITLE8=Patsy Cline - Walkin' After Midnight
TTITLE9=Guy Mitchell - Singing The Blues
TTITLE10=Brenda Lee - I'm Sorry (Live)
TTITLE11=Charley Pride - Help Me Make It Through The Night (Live)
TTITLE12=Merle Haggard - Today I Started Loving You Again
TTITLE13=Roger Miller - Please Release Me
TTITLE14=Hank Thompson - A Fool, A Faker
TTITLE15=Frankie Laine - I Believe
TTITLE16=Porter Wagoner - Green Green Grass Of Home
TTITLE17=Lynn Anderson - Rose Garden
TTITLE18=Boxcar Willie - Blue Moon Of Kentucky
TTITLE19=The Kendalls - Heaven's Just A Sin Away
EXTD=Artist and Track names in correct Column
EXTT0=
EXTT1=
EXTT2=
EXTT3=
EXTT4=
EXTT5=
EXTT6=
EXTT7=
EXTT8=
EXTT9=
EXTT10=
EXTT11=
EXTT12=
EXTT13=
EXTT14=
EXTT15=
EXTT16=
EXTT17=
EXTT18=
EXTT19=
PLAYORDER=
